<svg width="17" height="20" viewBox="0 0 17 20" fill="none" xmlns="http://www.w3.org/2000/svg">
<path d="M15.2418 4.3581C14.2017 2.25784 12.1915 0.707655 9.8612 0.197593C7.4209 -0.342472 4.9206 0.237598 3.01037 1.77779C1.09013 3.30797 0 5.59825 0 8.04855C0 10.6389 1.55019 13.3492 3.89047 14.9194V15.7495C3.88047 16.0295 3.87047 16.4596 4.21051 16.8096C4.56055 17.1697 5.08062 17.2097 5.49067 17.2097H10.6213C11.1614 17.2097 11.5714 17.0596 11.8514 16.7796C12.2315 16.3896 12.2215 15.8895 12.2115 15.6195V14.9194C15.3119 12.8291 17.2621 8.41859 15.2418 4.3581Z" fill="#FBCB18"/>
<path d="M11.2914 20C11.2314 20 11.1614 19.99 11.1013 19.97C9.0911 19.3999 6.98085 19.3999 4.9706 19.97C4.60056 20.07 4.21051 19.86 4.1105 19.4899C4.00049 19.1199 4.22051 18.7298 4.59056 18.6298C6.85083 17.9898 9.23112 17.9898 11.4914 18.6298C11.8614 18.7398 12.0815 19.1199 11.9715 19.4899C11.8714 19.8 11.5914 20 11.2914 20Z" fill="#FBCB18"/>
</svg>
