<svg width="22" height="22" viewBox="0 0 22 22" fill="none" xmlns="http://www.w3.org/2000/svg">
<path d="M5.88372 9.72093H3.83721C1.36093 9.72093 0 8.36 0 5.88372V3.83721C0 1.36093 1.36093 0 3.83721 0H5.88372C8.36 0 9.72093 1.36093 9.72093 3.83721V5.88372C9.72093 8.36 8.36 9.72093 5.88372 9.72093ZM3.83721 1.53488C2.22047 1.53488 1.53488 2.22047 1.53488 3.83721V5.88372C1.53488 7.50047 2.22047 8.18605 3.83721 8.18605H5.88372C7.50047 8.18605 8.18605 7.50047 8.18605 5.88372V3.83721C8.18605 2.22047 7.50047 1.53488 5.88372 1.53488H3.83721Z" fill="#787486"/>
<path d="M18.1628 9.72093H16.1163C13.64 9.72093 12.2791 8.36 12.2791 5.88372V3.83721C12.2791 1.36093 13.64 0 16.1163 0H18.1628C20.6391 0 22 1.36093 22 3.83721V5.88372C22 8.36 20.6391 9.72093 18.1628 9.72093ZM16.1163 1.53488C14.4995 1.53488 13.814 2.22047 13.814 3.83721V5.88372C13.814 7.50047 14.4995 8.18605 16.1163 8.18605H18.1628C19.7795 8.18605 20.4651 7.50047 20.4651 5.88372V3.83721C20.4651 2.22047 19.7795 1.53488 18.1628 1.53488H16.1163Z" fill="#787486"/>
<path d="M18.1628 22H16.1163C13.64 22 12.2791 20.6391 12.2791 18.1628V16.1163C12.2791 13.64 13.64 12.2791 16.1163 12.2791H18.1628C20.6391 12.2791 22 13.64 22 16.1163V18.1628C22 20.6391 20.6391 22 18.1628 22ZM16.1163 13.814C14.4995 13.814 13.814 14.4995 13.814 16.1163V18.1628C13.814 19.7795 14.4995 20.4651 16.1163 20.4651H18.1628C19.7795 20.4651 20.4651 19.7795 20.4651 18.1628V16.1163C20.4651 14.4995 19.7795 13.814 18.1628 13.814H16.1163Z" fill="#787486"/>
<path d="M5.88372 22H3.83721C1.36093 22 0 20.6391 0 18.1628V16.1163C0 13.64 1.36093 12.2791 3.83721 12.2791H5.88372C8.36 12.2791 9.72093 13.64 9.72093 16.1163V18.1628C9.72093 20.6391 8.36 22 5.88372 22ZM3.83721 13.814C2.22047 13.814 1.53488 14.4995 1.53488 16.1163V18.1628C1.53488 19.7795 2.22047 20.4651 3.83721 20.4651H5.88372C7.50047 20.4651 8.18605 19.7795 8.18605 18.1628V16.1163C8.18605 14.4995 7.50047 13.814 5.88372 13.814H3.83721Z" fill="#787486"/>
</svg>
