<svg width="21" height="22" viewBox="0 0 21 22" fill="none" xmlns="http://www.w3.org/2000/svg">
<path d="M7.70255 9.79488C7.60073 9.7847 7.47855 9.7847 7.36655 9.79488C4.94329 9.71343 3.01893 7.72798 3.01893 5.28435C3.01893 2.78981 5.03492 0.763634 7.53964 0.763634C10.0342 0.763634 12.0604 2.78981 12.0604 5.28435C12.0502 7.72798 10.1258 9.71343 7.70255 9.79488Z" stroke="#787486" stroke-width="1.5" stroke-linecap="round" stroke-linejoin="round"/>
<path d="M15.0844 2.79999C17.0596 2.79999 18.648 4.39853 18.648 6.36362C18.648 8.28798 17.1207 9.85597 15.2167 9.92724C15.1353 9.91706 15.0437 9.91706 14.952 9.92724" stroke="#787486" stroke-width="1.5" stroke-linecap="round" stroke-linejoin="round"/>
<path d="M2.61163 13.552C0.147636 15.2014 0.147636 17.8894 2.61163 19.5287C5.41162 21.4021 10.0036 21.4021 12.8036 19.5287C15.2676 17.8792 15.2676 15.1912 12.8036 13.552C10.0138 11.6887 5.4218 11.6887 2.61163 13.552Z" stroke="#787486" stroke-width="1.5" stroke-linecap="round" stroke-linejoin="round"/>
<path d="M17.0495 19.0909C17.7826 18.9381 18.4749 18.6429 19.0451 18.205C20.6334 17.0138 20.6334 15.0487 19.0451 13.8574C18.4851 13.4298 17.8029 13.1447 17.08 12.9818" stroke="#787486" stroke-width="1.5" stroke-linecap="round" stroke-linejoin="round"/>
</svg>
