<svg width="17" height="17" viewBox="0 0 17 17" fill="none" xmlns="http://www.w3.org/2000/svg">
<path d="M14.9294 8.16205L14.7178 12.2004C14.5767 14.8926 13.8683 15.5304 11.1761 15.3893L4.44551 15.0366C1.75327 14.8955 1.11548 14.1872 1.25658 11.4949L1.60931 4.76434C1.75041 2.0721 2.45874 1.43431 5.15098 1.57541L6.16057 1.62832C7.17016 1.68123 7.37675 1.98901 7.73359 2.52064L8.67263 3.91967C8.91076 4.26961 9.04825 4.47929 9.72131 4.51456L11.7405 4.62038C14.4327 4.76148 15.0705 5.46981 14.9294 8.16205Z" stroke="#787486" stroke-miterlimit="10"/>
<path d="M6.16049 1.6283L12.218 1.94577C13.5642 2.01631 14.2019 2.72465 14.1314 4.07077L14.0827 4.99959" stroke="#787486" stroke-miterlimit="10" stroke-linecap="round" stroke-linejoin="round"/>
<path d="M9.74029 10.5897L6.37499 10.4134" stroke="#787486" stroke-miterlimit="10" stroke-linecap="round" stroke-linejoin="round"/>
</svg>
