<svg width="17" height="17" viewBox="0 0 17 17" fill="none" xmlns="http://www.w3.org/2000/svg">
<path d="M8.11869 15.7758C7.65428 15.7514 7.22913 15.4929 6.94104 15.0662L6.002 13.6671C5.98322 13.6391 5.90421 13.6013 5.87091 13.5928L5.53438 13.5751C2.72772 13.428 1.03109 12.5765 1.22933 8.79387L1.40569 5.42858C1.5616 2.45365 3.21202 0.967608 6.18695 1.12352L11.5714 1.40571C14.5463 1.56162 16.0324 3.21203 15.8765 6.18696L15.7001 9.55226C15.5442 12.5272 13.8938 14.0132 10.9189 13.8573L10.5823 13.8397C10.5285 13.8369 10.48 13.8613 10.4442 13.8999L9.36406 15.1931C9.03293 15.5875 8.5831 15.8001 8.11869 15.7758ZM6.13404 2.13311C3.72448 2.00683 2.54156 3.07193 2.41528 5.48149L2.23892 8.84678C2.07948 11.889 3.09697 12.435 5.58729 12.5655L5.92382 12.5832C6.26709 12.6012 6.64723 12.8168 6.84142 13.1037L7.78046 14.5027C7.9998 14.8247 8.33634 14.8423 8.58813 14.5451L9.66827 13.2518C9.9059 12.9673 10.2651 12.8107 10.6352 12.8301L10.9718 12.8477C13.3813 12.974 14.5642 11.9089 14.6905 9.49935L14.8669 6.13405C14.9932 3.72449 13.9281 2.54158 11.5185 2.4153L6.13404 2.13311Z" fill="#787486"/>
<path d="M8.5 8.5C8.12309 8.48024 7.84281 8.16184 7.86222 7.79166C7.88162 7.42148 8.20037 7.13447 8.57055 7.15388C8.94073 7.17328 9.22774 7.49203 9.20834 7.86221C9.18893 8.23239 8.87692 8.51975 8.5 8.5Z" fill="#787486"/>
<path d="M11.1922 8.6411C10.8153 8.62135 10.5351 8.30295 10.5545 7.93277C10.5739 7.56258 10.8926 7.27558 11.2628 7.29498C11.633 7.31438 11.92 7.63313 11.9006 8.00331C11.8812 8.3735 11.5692 8.66085 11.1922 8.6411Z" fill="#787486"/>
<path d="M5.80776 8.35891C5.43085 8.33915 5.15058 8.02076 5.16998 7.65057C5.18938 7.28039 5.50813 6.99339 5.87831 7.01279C6.24849 7.03219 6.5355 7.35094 6.5161 7.72112C6.4967 8.0913 6.18468 8.37866 5.80776 8.35891Z" fill="#787486"/>
</svg>
