<svg width="13" height="15" viewBox="0 0 13 15" fill="none" xmlns="http://www.w3.org/2000/svg">
<path d="M2.01958 0.661874H10.9804C11.7272 0.661874 12.3381 1.27284 12.3381 2.01958V3.51305C12.3381 4.05613 11.9987 4.73498 11.6593 5.07441L8.74021 7.65404C8.33289 7.99347 8.06135 8.67232 8.06135 9.2154V12.1345C8.06135 12.5418 7.78981 13.0849 7.45039 13.2885L6.5 13.8995C5.61749 14.4426 4.39556 13.8316 4.39556 12.7454V9.14752C4.39556 8.67232 4.12402 8.06135 3.85248 7.72193L1.27284 5.00652C0.933415 4.6671 0.661874 4.05613 0.661874 3.64882V2.08746C0.661874 1.27284 1.27284 0.661874 2.01958 0.661874Z" stroke="#787486" stroke-width="1.3" stroke-miterlimit="10" stroke-linecap="round" stroke-linejoin="round"/>
</svg>
