<svg width="162" height="16" viewBox="0 0 162 16" fill="none" xmlns="http://www.w3.org/2000/svg">
<path d="M120.333 7.33334V11.3333C120.333 14 119.667 14.6667 117 14.6667H110.333C107.667 14.6667 107 14 107 11.3333V4.66668C107 2.00001 107.667 1.33334 110.333 1.33334H111.333C112.333 1.33334 112.553 1.62668 112.933 2.13334L113.933 3.46668C114.187 3.80001 114.333 4.00001 115 4.00001H117C119.667 4.00001 120.333 4.66668 120.333 7.33334Z" stroke="#787486" stroke-miterlimit="10"/>
<path d="M111.333 1.33334H117.333C118.667 1.33334 119.333 2.00001 119.333 3.33334V4.25334" stroke="#787486" stroke-miterlimit="10" stroke-linecap="round" stroke-linejoin="round"/>
<path d="M115.333 10H112" stroke="#787486" stroke-miterlimit="10" stroke-linecap="round" stroke-linejoin="round"/>
<path d="M8.00001 15.2067C7.54001 15.2067 7.10668 14.9733 6.80001 14.5667L5.80001 13.2333C5.78001 13.2067 5.70001 13.1733 5.66668 13.1667H5.33334C2.55334 13.1667 0.833344 12.4133 0.833344 8.66668V5.33334C0.833344 2.38668 2.38668 0.833344 5.33334 0.833344H10.6667C13.6133 0.833344 15.1667 2.38668 15.1667 5.33334V8.66668C15.1667 11.6133 13.6133 13.1667 10.6667 13.1667H10.3333C10.28 13.1667 10.2333 13.1933 10.2 13.2333L9.20001 14.5667C8.89334 14.9733 8.46001 15.2067 8.00001 15.2067ZM5.33334 1.83334C2.94668 1.83334 1.83334 2.94668 1.83334 5.33334V8.66668C1.83334 11.68 2.86668 12.1667 5.33334 12.1667H5.66668C6.00668 12.1667 6.39334 12.36 6.60001 12.6333L7.60001 13.9667C7.83334 14.2733 8.16668 14.2733 8.40001 13.9667L9.40001 12.6333C9.62001 12.34 9.96668 12.1667 10.3333 12.1667H10.6667C13.0533 12.1667 14.1667 11.0533 14.1667 8.66668V5.33334C14.1667 2.94668 13.0533 1.83334 10.6667 1.83334H5.33334Z" fill="#787486"/>
<path d="M8.00001 7.99999C7.62668 7.99999 7.33334 7.69999 7.33334 7.33332C7.33334 6.96666 7.63334 6.66666 8.00001 6.66666C8.36668 6.66666 8.66668 6.96666 8.66668 7.33332C8.66668 7.69999 8.37334 7.99999 8.00001 7.99999Z" fill="#787486"/>
<path d="M10.6667 7.99999C10.2933 7.99999 10 7.69999 10 7.33332C10 6.96666 10.3 6.66666 10.6667 6.66666C11.0333 6.66666 11.3333 6.96666 11.3333 7.33332C11.3333 7.69999 11.04 7.99999 10.6667 7.99999Z" fill="#787486"/>
<path d="M5.33332 7.99999C4.95999 7.99999 4.66666 7.69999 4.66666 7.33332C4.66666 6.96666 4.96666 6.66666 5.33332 6.66666C5.69999 6.66666 5.99999 6.96666 5.99999 7.33332C5.99999 7.69999 5.70666 7.99999 5.33332 7.99999Z" fill="#787486"/>
<path d="M21.8395 13V12.0455L24.7926 8.9858C25.108 8.65341 25.3679 8.36222 25.5724 8.11222C25.7798 7.85937 25.9347 7.61932 26.0369 7.39205C26.1392 7.16477 26.1903 6.9233 26.1903 6.66761C26.1903 6.37784 26.1222 6.12784 25.9858 5.91761C25.8494 5.70455 25.6634 5.54119 25.4276 5.42756C25.1918 5.31108 24.9261 5.25284 24.6307 5.25284C24.3182 5.25284 24.0455 5.31676 23.8125 5.4446C23.5795 5.57244 23.4006 5.75284 23.2756 5.9858C23.1506 6.21875 23.0881 6.49148 23.0881 6.80398H21.831C21.831 6.27273 21.9531 5.80824 22.1974 5.41051C22.4418 5.01278 22.777 4.70455 23.2031 4.4858C23.6293 4.2642 24.1136 4.15341 24.6562 4.15341C25.2045 4.15341 25.6875 4.26278 26.1051 4.48153C26.5256 4.69744 26.8537 4.9929 27.0895 5.3679C27.3253 5.74006 27.4432 6.16051 27.4432 6.62926C27.4432 6.95312 27.3821 7.26989 27.2599 7.57955C27.1406 7.8892 26.9318 8.23437 26.6335 8.61506C26.3352 8.9929 25.9205 9.4517 25.3892 9.99148L23.6548 11.8068V11.8707H27.5838V13H21.8395ZM35.1488 13.1321C34.5153 13.1321 33.9698 12.9886 33.5124 12.7017C33.0579 12.4119 32.7085 12.0128 32.4641 11.5043C32.2198 10.9957 32.0977 10.4134 32.0977 9.7571C32.0977 9.09233 32.2227 8.50568 32.4727 7.99716C32.7227 7.4858 33.0749 7.08665 33.5295 6.79972C33.984 6.51278 34.5195 6.36932 35.136 6.36932C35.6332 6.36932 36.0763 6.46165 36.4656 6.64631C36.8548 6.82812 37.1687 7.08381 37.4073 7.41335C37.6488 7.7429 37.7923 8.12784 37.8377 8.56818H36.5977C36.5295 8.26136 36.3732 7.99716 36.1289 7.77557C35.8874 7.55398 35.5636 7.44318 35.1573 7.44318C34.8022 7.44318 34.4911 7.53693 34.2241 7.72443C33.9599 7.90909 33.7539 8.1733 33.6062 8.51705C33.4585 8.85795 33.3846 9.26136 33.3846 9.72727C33.3846 10.2045 33.457 10.6165 33.6019 10.9631C33.7468 11.3097 33.9513 11.5781 34.2156 11.7685C34.4826 11.9588 34.7965 12.054 35.1573 12.054C35.3988 12.054 35.6175 12.0099 35.8136 11.9219C36.0124 11.831 36.1786 11.7017 36.3121 11.5341C36.4485 11.3665 36.5437 11.1648 36.5977 10.929H37.8377C37.7923 11.3523 37.6545 11.7301 37.4244 12.0625C37.1942 12.3949 36.886 12.6562 36.4996 12.8466C36.1161 13.0369 35.6658 13.1321 35.1488 13.1321ZM41.9574 13.1321C41.3438 13.1321 40.8082 12.9915 40.3509 12.7102C39.8935 12.429 39.5384 12.0355 39.2855 11.5298C39.0327 11.0241 38.9062 10.4332 38.9062 9.7571C38.9062 9.07812 39.0327 8.48437 39.2855 7.97585C39.5384 7.46733 39.8935 7.07244 40.3509 6.79119C40.8082 6.50994 41.3438 6.36932 41.9574 6.36932C42.571 6.36932 43.1065 6.50994 43.5639 6.79119C44.0213 7.07244 44.3764 7.46733 44.6293 7.97585C44.8821 8.48437 45.0085 9.07812 45.0085 9.7571C45.0085 10.4332 44.8821 11.0241 44.6293 11.5298C44.3764 12.0355 44.0213 12.429 43.5639 12.7102C43.1065 12.9915 42.571 13.1321 41.9574 13.1321ZM41.9616 12.0625C42.3594 12.0625 42.6889 11.9574 42.9503 11.7472C43.2116 11.5369 43.4048 11.2571 43.5298 10.9077C43.6577 10.5582 43.7216 10.1733 43.7216 9.75284C43.7216 9.33523 43.6577 8.9517 43.5298 8.60227C43.4048 8.25 43.2116 7.96733 42.9503 7.75426C42.6889 7.54119 42.3594 7.43466 41.9616 7.43466C41.5611 7.43466 41.2287 7.54119 40.9645 7.75426C40.7031 7.96733 40.5085 8.25 40.3807 8.60227C40.2557 8.9517 40.1932 9.33523 40.1932 9.75284C40.1932 10.1733 40.2557 10.5582 40.3807 10.9077C40.5085 11.2571 40.7031 11.5369 40.9645 11.7472C41.2287 11.9574 41.5611 12.0625 41.9616 12.0625ZM46.4308 13V6.45455H47.6538V7.51989H47.7347C47.8711 7.15909 48.0941 6.87784 48.4038 6.67614C48.7134 6.47159 49.0842 6.36932 49.516 6.36932C49.9535 6.36932 50.32 6.47159 50.6154 6.67614C50.9137 6.88068 51.1339 7.16193 51.2759 7.51989H51.3441C51.5004 7.17045 51.7489 6.89205 52.0898 6.68466C52.4308 6.47443 52.837 6.36932 53.3086 6.36932C53.9023 6.36932 54.3867 6.5554 54.7617 6.92756C55.1396 7.29972 55.3285 7.8608 55.3285 8.6108V13H54.0543V8.73011C54.0543 8.28693 53.9336 7.96591 53.6921 7.76705C53.4506 7.56818 53.1623 7.46875 52.8271 7.46875C52.4123 7.46875 52.0898 7.59659 51.8597 7.85227C51.6296 8.10511 51.5146 8.4304 51.5146 8.82812V13H50.2447V8.64915C50.2447 8.29403 50.1339 8.00852 49.9123 7.79261C49.6907 7.5767 49.4023 7.46875 49.0472 7.46875C48.8058 7.46875 48.5827 7.53267 48.3782 7.66051C48.1765 7.78551 48.0131 7.96023 47.8881 8.18466C47.766 8.40909 47.7049 8.66903 47.7049 8.96449V13H46.4308ZM57.0362 13V6.45455H58.2592V7.51989H58.3402C58.4766 7.15909 58.6996 6.87784 59.0092 6.67614C59.3189 6.47159 59.6896 6.36932 60.1214 6.36932C60.5589 6.36932 60.9254 6.47159 61.2209 6.67614C61.5192 6.88068 61.7393 7.16193 61.8814 7.51989H61.9496C62.1058 7.17045 62.3544 6.89205 62.6953 6.68466C63.0362 6.47443 63.4425 6.36932 63.9141 6.36932C64.5078 6.36932 64.9922 6.5554 65.3672 6.92756C65.745 7.29972 65.9339 7.8608 65.9339 8.6108V13H64.6598V8.73011C64.6598 8.28693 64.5391 7.96591 64.2976 7.76705C64.0561 7.56818 63.7678 7.46875 63.4325 7.46875C63.0178 7.46875 62.6953 7.59659 62.4652 7.85227C62.2351 8.10511 62.12 8.4304 62.12 8.82812V13H60.8501V8.64915C60.8501 8.29403 60.7393 8.00852 60.5178 7.79261C60.2962 7.5767 60.0078 7.46875 59.6527 7.46875C59.4112 7.46875 59.1882 7.53267 58.9837 7.66051C58.782 7.78551 58.6186 7.96023 58.4936 8.18466C58.3714 8.40909 58.3104 8.66903 58.3104 8.96449V13H57.0362ZM70.4627 13.1321C69.8178 13.1321 69.2624 12.9943 68.7965 12.7188C68.3335 12.4403 67.9755 12.0497 67.7227 11.5469C67.4727 11.0412 67.3477 10.4489 67.3477 9.76989C67.3477 9.09943 67.4727 8.50852 67.7227 7.99716C67.9755 7.4858 68.3278 7.08665 68.7795 6.79972C69.234 6.51278 69.7653 6.36932 70.3732 6.36932C70.7425 6.36932 71.1005 6.4304 71.4471 6.55256C71.7937 6.67472 72.1048 6.86648 72.3803 7.12784C72.6559 7.3892 72.8732 7.72869 73.0323 8.14631C73.1914 8.56108 73.271 9.06534 73.271 9.65909V10.1108H68.0678V9.15625H72.0224C72.0224 8.82102 71.9542 8.52415 71.8178 8.26562C71.6815 8.00426 71.4897 7.7983 71.2425 7.64773C70.9982 7.49716 70.7113 7.42188 70.3817 7.42188C70.0238 7.42188 69.7113 7.50994 69.4442 7.68608C69.18 7.85937 68.9755 8.08665 68.8306 8.3679C68.6886 8.64631 68.6175 8.94886 68.6175 9.27557V10.0213C68.6175 10.4588 68.6942 10.831 68.8477 11.1378C69.0039 11.4446 69.2212 11.679 69.4996 11.8409C69.7781 12 70.1033 12.0795 70.4755 12.0795C70.717 12.0795 70.9371 12.0455 71.136 11.9773C71.3349 11.9062 71.5067 11.8011 71.6516 11.6619C71.7965 11.5227 71.9073 11.3509 71.984 11.1463L73.19 11.3636C73.0934 11.7187 72.9201 12.0298 72.6701 12.2969C72.4229 12.5611 72.1119 12.767 71.7369 12.9148C71.3647 13.0597 70.94 13.1321 70.4627 13.1321ZM75.9588 9.11364V13H74.6847V6.45455H75.9077V7.51989H75.9886C76.1392 7.1733 76.375 6.89489 76.696 6.68466C77.0199 6.47443 77.4276 6.36932 77.919 6.36932C78.3651 6.36932 78.7557 6.46307 79.0909 6.65057C79.4261 6.83523 79.6861 7.1108 79.8707 7.47727C80.0554 7.84375 80.1477 8.29687 80.1477 8.83665V13H78.8736V8.99006C78.8736 8.51562 78.75 8.14489 78.5028 7.87784C78.2557 7.60795 77.9162 7.47301 77.4844 7.47301C77.1889 7.47301 76.9261 7.53693 76.696 7.66477C76.4688 7.79261 76.2884 7.98011 76.1548 8.22727C76.0241 8.47159 75.9588 8.76705 75.9588 9.11364ZM84.9119 6.45455V7.47727H81.3366V6.45455H84.9119ZM82.2955 4.88636H83.5696V11.0781C83.5696 11.3253 83.6065 11.5114 83.6804 11.6364C83.7543 11.7585 83.8494 11.8423 83.9659 11.8878C84.0852 11.9304 84.2145 11.9517 84.3537 11.9517C84.456 11.9517 84.5455 11.9446 84.6222 11.9304C84.6989 11.9162 84.7585 11.9048 84.8011 11.8963L85.0312 12.9489C84.9574 12.9773 84.8523 13.0057 84.7159 13.0341C84.5795 13.0653 84.4091 13.0824 84.2045 13.0852C83.8693 13.0909 83.5568 13.0312 83.267 12.9062C82.9773 12.7812 82.7429 12.5881 82.5639 12.3267C82.3849 12.0653 82.2955 11.7372 82.2955 11.3423V4.88636ZM91.1207 8.05256L89.9659 8.2571C89.9176 8.10937 89.8409 7.96875 89.7358 7.83523C89.6335 7.7017 89.4943 7.59233 89.3182 7.5071C89.142 7.42187 88.9219 7.37926 88.6577 7.37926C88.2969 7.37926 87.9957 7.46023 87.7543 7.62216C87.5128 7.78125 87.392 7.98722 87.392 8.24006C87.392 8.45881 87.473 8.63494 87.6349 8.76847C87.7969 8.90199 88.0582 9.01136 88.419 9.09659L89.4588 9.33523C90.0611 9.47443 90.5099 9.68892 90.8054 9.97869C91.1009 10.2685 91.2486 10.6449 91.2486 11.108C91.2486 11.5 91.1349 11.8494 90.9077 12.1562C90.6832 12.4602 90.3693 12.6989 89.9659 12.8722C89.5653 13.0455 89.1009 13.1321 88.5724 13.1321C87.8395 13.1321 87.2415 12.9759 86.7784 12.6634C86.3153 12.348 86.0313 11.9006 85.9261 11.321L87.1577 11.1335C87.2344 11.4545 87.392 11.6974 87.6307 11.8622C87.8693 12.0241 88.1804 12.1051 88.5639 12.1051C88.9815 12.1051 89.3153 12.0185 89.5653 11.8452C89.8153 11.669 89.9403 11.4545 89.9403 11.2017C89.9403 10.9972 89.8636 10.8253 89.7102 10.6861C89.5597 10.5469 89.3281 10.4418 89.0156 10.3707L87.9077 10.1278C87.2969 9.98864 86.8452 9.76705 86.5526 9.46307C86.2628 9.15909 86.1179 8.77415 86.1179 8.30824C86.1179 7.92187 86.2259 7.58381 86.4418 7.29403C86.6577 7.00426 86.956 6.77841 87.3366 6.61648C87.7173 6.4517 88.1534 6.36932 88.6449 6.36932C89.3523 6.36932 89.9091 6.52273 90.3153 6.82955C90.7216 7.13352 90.9901 7.54119 91.1207 8.05256Z" fill="#787486"/>
<path d="M130.878 13.1449C130.205 13.142 129.629 12.9645 129.152 12.6122C128.675 12.2599 128.31 11.7472 128.057 11.0739C127.804 10.4006 127.678 9.58949 127.678 8.64062C127.678 7.6946 127.804 6.88636 128.057 6.21591C128.313 5.54545 128.679 5.03409 129.156 4.68182C129.636 4.32955 130.21 4.15341 130.878 4.15341C131.545 4.15341 132.118 4.33097 132.595 4.68608C133.072 5.03835 133.438 5.54972 133.69 6.22017C133.946 6.88778 134.074 7.6946 134.074 8.64062C134.074 9.59233 133.947 10.4048 133.695 11.0781C133.442 11.7486 133.077 12.2614 132.599 12.6165C132.122 12.9688 131.548 13.1449 130.878 13.1449ZM130.878 12.0071C131.469 12.0071 131.93 11.7188 132.263 11.142C132.598 10.5653 132.766 9.73153 132.766 8.64062C132.766 7.91619 132.689 7.30398 132.536 6.80398C132.385 6.30114 132.168 5.92045 131.884 5.66193C131.602 5.40057 131.267 5.26989 130.878 5.26989C130.29 5.26989 129.828 5.55966 129.493 6.1392C129.158 6.71875 128.989 7.55256 128.986 8.64062C128.986 9.3679 129.061 9.98295 129.212 10.4858C129.365 10.9858 129.582 11.3651 129.864 11.6236C130.145 11.8793 130.483 12.0071 130.878 12.0071ZM141.893 6.45455V7.47727H138.195V6.45455H141.893ZM139.209 13V5.69602C139.209 5.28693 139.298 4.94744 139.477 4.67756C139.656 4.40483 139.893 4.2017 140.189 4.06818C140.484 3.93182 140.805 3.86364 141.152 3.86364C141.408 3.86364 141.626 3.88494 141.808 3.92756C141.99 3.96733 142.125 4.00426 142.213 4.03835L141.915 5.0696C141.855 5.05256 141.778 5.03267 141.685 5.00994C141.591 4.98437 141.477 4.97159 141.344 4.97159C141.034 4.97159 140.813 5.0483 140.679 5.2017C140.548 5.35511 140.483 5.5767 140.483 5.86648V13H139.209ZM143.208 13V6.45455H144.482V13H143.208ZM143.852 5.4446C143.63 5.4446 143.44 5.37074 143.281 5.22301C143.124 5.07244 143.046 4.89347 143.046 4.68608C143.046 4.47585 143.124 4.29687 143.281 4.14915C143.44 3.99858 143.63 3.9233 143.852 3.9233C144.073 3.9233 144.262 3.99858 144.418 4.14915C144.577 4.29687 144.657 4.47585 144.657 4.68608C144.657 4.89347 144.577 5.07244 144.418 5.22301C144.262 5.37074 144.073 5.4446 143.852 5.4446ZM147.471 4.27273V13H146.196V4.27273H147.471ZM152.006 13.1321C151.361 13.1321 150.805 12.9943 150.339 12.7188C149.876 12.4403 149.518 12.0497 149.266 11.5469C149.016 11.0412 148.891 10.4489 148.891 9.76989C148.891 9.09943 149.016 8.50852 149.266 7.99716C149.518 7.4858 149.871 7.08665 150.322 6.79972C150.777 6.51278 151.308 6.36932 151.916 6.36932C152.286 6.36932 152.643 6.4304 152.99 6.55256C153.337 6.67472 153.648 6.86648 153.923 7.12784C154.199 7.3892 154.416 7.72869 154.575 8.14631C154.734 8.56108 154.814 9.06534 154.814 9.65909V10.1108H149.611V9.15625H153.565C153.565 8.82102 153.497 8.52415 153.361 8.26562C153.224 8.00426 153.033 7.7983 152.786 7.64773C152.541 7.49716 152.254 7.42188 151.925 7.42188C151.567 7.42188 151.254 7.50994 150.987 7.68608C150.723 7.85937 150.518 8.08665 150.374 8.3679C150.232 8.64631 150.161 8.94886 150.161 9.27557V10.0213C150.161 10.4588 150.237 10.831 150.391 11.1378C150.547 11.4446 150.764 11.679 151.043 11.8409C151.321 12 151.646 12.0795 152.018 12.0795C152.26 12.0795 152.48 12.0455 152.679 11.9773C152.878 11.9062 153.05 11.8011 153.195 11.6619C153.339 11.5227 153.45 11.3509 153.527 11.1463L154.733 11.3636C154.636 11.7187 154.463 12.0298 154.213 12.2969C153.966 12.5611 153.655 12.767 153.28 12.9148C152.908 13.0597 152.483 13.1321 152.006 13.1321ZM161.132 8.05256L159.978 8.2571C159.929 8.10937 159.853 7.96875 159.748 7.83523C159.645 7.7017 159.506 7.59233 159.33 7.5071C159.154 7.42187 158.934 7.37926 158.669 7.37926C158.309 7.37926 158.007 7.46023 157.766 7.62216C157.525 7.78125 157.404 7.98722 157.404 8.24006C157.404 8.45881 157.485 8.63494 157.647 8.76847C157.809 8.90199 158.07 9.01136 158.431 9.09659L159.471 9.33523C160.073 9.47443 160.522 9.68892 160.817 9.97869C161.113 10.2685 161.26 10.6449 161.26 11.108C161.26 11.5 161.147 11.8494 160.919 12.1562C160.695 12.4602 160.381 12.6989 159.978 12.8722C159.577 13.0455 159.113 13.1321 158.584 13.1321C157.851 13.1321 157.253 12.9759 156.79 12.6634C156.327 12.348 156.043 11.9006 155.938 11.321L157.169 11.1335C157.246 11.4545 157.404 11.6974 157.642 11.8622C157.881 12.0241 158.192 12.1051 158.576 12.1051C158.993 12.1051 159.327 12.0185 159.577 11.8452C159.827 11.669 159.952 11.4545 159.952 11.2017C159.952 10.9972 159.875 10.8253 159.722 10.6861C159.571 10.5469 159.34 10.4418 159.027 10.3707L157.919 10.1278C157.309 9.98864 156.857 9.76705 156.564 9.46307C156.275 9.15909 156.13 8.77415 156.13 8.30824C156.13 7.92187 156.238 7.58381 156.453 7.29403C156.669 7.00426 156.968 6.77841 157.348 6.61648C157.729 6.4517 158.165 6.36932 158.657 6.36932C159.364 6.36932 159.921 6.52273 160.327 6.82955C160.733 7.13352 161.002 7.54119 161.132 8.05256Z" fill="#787486"/>
</svg>
