<svg width="22" height="21" viewBox="0 0 22 21" fill="none" xmlns="http://www.w3.org/2000/svg">
<path d="M10.9949 13.49C12.6895 13.49 14.0632 12.1163 14.0632 10.4217C14.0632 8.72709 12.6895 7.35335 10.9949 7.35335C9.30028 7.35335 7.92654 8.72709 7.92654 10.4217C7.92654 12.1163 9.30028 13.49 10.9949 13.49Z" stroke="#787486" stroke-width="1.5" stroke-miterlimit="10" stroke-linecap="round" stroke-linejoin="round"/>
<path d="M0.767085 11.3217V9.52164C0.767085 8.45795 1.63645 7.57836 2.71037 7.57836C4.5616 7.57836 5.31845 6.2692 4.38772 4.66344C3.85588 3.74294 4.17294 2.54628 5.10367 2.01444L6.87308 1.00189C7.68107 0.521181 8.72431 0.807559 9.20502 1.61555L9.31752 1.80988C10.238 3.41565 11.7517 3.41565 12.6825 1.80988L12.795 1.61555C13.2757 0.807559 14.3189 0.521181 15.1269 1.00189L16.8963 2.01444C17.827 2.54628 18.1441 3.74294 17.6123 4.66344C16.6815 6.2692 17.4384 7.57836 19.2896 7.57836C20.3533 7.57836 21.2329 8.44772 21.2329 9.52164V11.3217C21.2329 12.3854 20.3635 13.265 19.2896 13.265C17.4384 13.265 16.6815 14.5742 17.6123 16.1799C18.1441 17.1107 17.827 18.2971 16.8963 18.8289L15.1269 19.8415C14.3189 20.3222 13.2757 20.0358 12.795 19.2278L12.6825 19.0335C11.762 17.4277 10.2483 17.4277 9.31752 19.0335L9.20502 19.2278C8.72431 20.0358 7.68107 20.3222 6.87308 19.8415L5.10367 18.8289C4.17294 18.2971 3.85588 17.1004 4.38772 16.1799C5.31845 14.5742 4.5616 13.265 2.71037 13.265C1.63645 13.265 0.767085 12.3854 0.767085 11.3217Z" stroke="#787486" stroke-width="1.5" stroke-miterlimit="10" stroke-linecap="round" stroke-linejoin="round"/>
</svg>
