<svg width="14" height="15" viewBox="0 0 14 15" fill="none" xmlns="http://www.w3.org/2000/svg">
<path d="M4.08129 0.665977V2.71516" stroke="#787486" stroke-width="1.3" stroke-miterlimit="10" stroke-linecap="round" stroke-linejoin="round"/>
<path d="M9.54575 0.665977V2.71516" stroke="#787486" stroke-width="1.3" stroke-miterlimit="10" stroke-linecap="round" stroke-linejoin="round"/>
<path d="M9.54576 1.69057C11.8203 1.81352 12.9611 2.681 12.9611 5.89139V10.1127C12.9611 12.9269 12.278 14.334 8.8627 14.334H4.76434C1.34904 14.334 0.665977 12.9269 0.665977 10.1127V5.89139C0.665977 2.681 1.80669 1.82035 4.08128 1.69057H9.54576Z" stroke="#787486" stroke-width="1.3" stroke-miterlimit="10" stroke-linecap="round" stroke-linejoin="round"/>
<path d="M12.7903 11.3217H0.836732" stroke="#787486" stroke-width="1.3" stroke-miterlimit="10" stroke-linecap="round" stroke-linejoin="round"/>
<path d="M6.81353 4.93511C5.97337 4.93511 5.26298 5.39276 5.26298 6.28074C5.26298 6.70423 5.46107 7.02527 5.76162 7.23019C5.34495 7.47609 5.10588 7.87227 5.10588 8.33675C5.10588 9.18374 5.75479 9.7097 6.81353 9.7097C7.86544 9.7097 8.52118 9.18374 8.52118 8.33675C8.52118 7.87227 8.28211 7.46926 7.85861 7.23019C8.16599 7.01844 8.35725 6.70423 8.35725 6.28074C8.35725 5.39276 7.65369 4.93511 6.81353 4.93511ZM6.81353 6.875C6.45834 6.875 6.19878 6.66325 6.19878 6.32855C6.19878 5.98702 6.45834 5.78893 6.81353 5.78893C7.16872 5.78893 7.42828 5.98702 7.42828 6.32855C7.42828 6.66325 7.16872 6.875 6.81353 6.875ZM6.81353 8.8627C6.36271 8.8627 6.03484 8.63729 6.03484 8.22746C6.03484 7.81762 6.36271 7.59904 6.81353 7.59904C7.26435 7.59904 7.59222 7.82445 7.59222 8.22746C7.59222 8.63729 7.26435 8.8627 6.81353 8.8627Z" fill="#787486"/>
</svg>
